<svg version="1.2" xmlns="http://www.w3.org/2000/svg" viewBox="0 0 253 76" width="136" height="41">
	<title>logo-1-svg</title>
	<defs>
		<clipPath clipPathUnits="userSpaceOnUse" id="cp1">
			<path d="m24.46 62h58.5v11.7h-58.5z"/>
		</clipPath>
		<clipPath clipPathUnits="userSpaceOnUse" id="cp2">
			<path d="m30 9.2h52.96v57.8h-52.96z"/>
		</clipPath>
	</defs>
	<style>
		.s0 { fill: #f6e5d7 } 
	</style>
	<g id="Clip-Path" clip-path="url(#cp1)">
		<g id="Layer">
			<path id="Layer" class="s0" d="m117.6 62.3h-91c-1.2 0-2 0.8-2 1.9 0 5.4 4.3 9.5 9.5 9.5h76c5.3 0 9.5-4.3 9.5-9.5 0-0.9-0.8-1.9-2-1.9z"/>
		</g>
	</g>
	<path id="Layer" class="s0" d="m78.2 41.4l-5.1 0.4 2.3 5.3-1.9 1-2.4-5.5-3.8 3.3v-14.8z"/>
	<g id="Clip-Path" clip-path="url(#cp2)">
		<g id="Layer">
			<path id="Layer" fill-rule="evenodd" class="s0" d="m114 17v41.5c0 4.4-3.3 7.7-7.7 7.7h-68.4c-4.4 0-7.8-3.3-7.8-7.7v-41.5c0-4.4 3.4-7.7 7.8-7.7h68.4c4.4 0 7.7 3.3 7.7 7.7zm-7.7 1.9c0-1.2-0.8-1.9-2-1.9h-64.5c-1.2 0-1.9 0.7-1.9 1.9v37.9c0 1.1 0.7 1.9 1.9 1.9h64.5c1.2 0 2-0.8 2-1.9z"/>
		</g>
	</g>
	<g id="Layer">
		<g id="Layer">
			<g id="Layer">
				<path id="Layer" fill-rule="evenodd" class="s0" d="m111.2 33.4q3.2 0.3 4.5 2.1 1.3 1.7 1.3 4.1 0 1.5-0.4 2.9-0.5 1.4-1.1 2.3-0.7 0.9-1.1 1.2-1.9 1.2-11.3 1.2h-8.9v-26.2h10.8q3.7 0 6 0.4 2.3 0.4 3.7 1.7 1.4 1.4 1.4 4.1 0 2.4-1.2 3.9-1.1 1.5-3.7 2zm-3.6-6.8q-0.5-0.4-1.1-0.5-0.7-0.2-2-0.2-1.3 0-2 0.1v5.6c0.1 0 1.2 0 2.4 0q1.7 0 2.2-0.2 0.5-0.2 0.8-1 0.3-0.8 0.3-1.7 0-1.4-0.6-2.1zm0.7 15.4q0.4-0.3 0.6-1 0.2-0.8 0.2-1.6 0-1-0.3-1.8-0.2-0.9-0.7-1.2-0.4-0.4-1.1-0.6-0.8-0.1-2.6-0.1-1.1 0-1.9 0v6.7q2.1 0 3.8-0.1 1.7-0.1 2-0.3z"/>
			</g>
		</g>
	</g>
	<g id="Layer">
		<g id="Layer">
			<g id="Layer">
				<path id="Layer" class="s0" d="m133.2 25.6q0.6 0 1.2 0.1 0.7 0.2 1 0.4 0 1-0.2 3.3-0.2 2.3-0.4 3.3-0.5-0.1-1.7-0.1-2.9 0-5.2 0.3v14.3h-7.8v-21.1h6.5l1 3.4q1.3-1.8 2.9-2.9 1.5-1 2.7-1z"/>
			</g>
		</g>
	</g>
	<g id="Layer">
		<g id="Layer">
			<g id="Layer">
				<path id="Layer" fill-rule="evenodd" class="s0" d="m150.1 47.2l-0.7-2.9q-2.2 3.5-5.9 3.5-3.1 0-5.1-1.8-1.9-1.7-1.9-4.8 0-1.9 1.1-3.4 1.1-1.4 3.1-2 2.6-0.8 8-0.9 0-3-0.3-3.2-0.2-0.2-1.5-0.2-0.8 0-2.1 0.1-2.2 0.1-6 0.5-0.4-2.5-0.6-5.3 2.5-0.5 5.1-0.9 2.7-0.3 4.8-0.3 3.7 0 5.5 1.2 1.9 1.2 2.4 3.2 0.6 2 0.5 5v6.8l0.1 5.4zm-3.9-4.6q1.2 0 2.5-0.5v-3.4h-0.4q-3.4 0-3.7 0.4-0.3 0.3-0.4 0.7-0.1 0.5-0.1 0.9 0 1.1 0.5 1.5 0.5 0.4 1.6 0.4z"/>
			</g>
		</g>
	</g>
	<g id="Layer">
		<g id="Layer">
			<g id="Layer">
				<path id="Layer" class="s0" d="m182 26.1l-5.5 17.7q-1.7 5.1-2.9 7.4-1.3 2.3-2.6 3.2-0.8 0.5-2.4 0.8-1.5 0.3-3.4 0.3-2.7 0-4.4-0.5 0-1.1 0.1-2.7 0.1-1.6 0.4-2.7 1.9 0.1 3.8 0.1 1.3 0 2-0.1 0.7-1.3 1.3-2.8l-3.2-0.1-7.1-20.6h8.4l3.6 14.8 0.1 0.8h0.1l3.3-15.6z"/>
			</g>
		</g>
	</g>
	<g id="Layer">
		<g id="Layer">
			<g id="Layer">
				<path id="Layer" fill-rule="evenodd" class="s0" d="m197 47.8q-6.8 0-10.3-3.2-3.4-3.3-3.4-10.5 0-7 3.8-10.2 3.7-3.2 10-3.2 13 0 13 13 0 6.6-3.2 10.3-3.2 3.8-9.9 3.8zm-0.2-5.4q1.3 0 2.2-0.5 0.9-0.4 1.4-1.5 0.9-1.9 0.9-6.2 0-4.1-0.9-6-1-2-3.6-2.1-0.9 0-2 0.3-1 0.2-1.3 0.5-0.5 0.7-0.8 2.8-0.3 2.1-0.3 4.5 0 3.9 0.7 5.7 0.5 1.3 1.4 1.9 1 0.6 2.3 0.6z"/>
			</g>
		</g>
	</g>
	<g id="Layer">
		<g id="Layer">
			<g id="Layer">
				<path id="Layer" fill-rule="evenodd" class="s0" d="m229 41.5h-7.7l-1.3 5.7h-8.5l8.5-26.2h10.8l8.1 26.2h-8.5zm-3.9-14.8l-2.7 9.7h5.5l-2.6-9.7z"/>
			</g>
		</g>
	</g>
	<g id="Layer">
		<g id="Layer">
			<g id="Layer">
				<path id="Layer" fill-rule="evenodd" class="s0" d="m109 62.7q0 1.3-0.5 2.3-0.5 0.9-1.5 1.5-0.9 0.5-2.1 0.5h-3v-8.3h2.7q2.1 0 3.2 1 1.2 1.1 1.2 3zm-1.2 0q0-1.5-0.8-2.3-0.9-0.8-2.4-0.8h-1.6v6.5h1.8q0.9 0 1.6-0.4 0.7-0.4 1.1-1.2 0.3-0.7 0.3-1.8z"/>
			</g>
		</g>
	</g>
	<g id="Layer">
		<g id="Layer">
			<g id="Layer">
				<path id="Layer" class="s0" d="m117.5 67v-8.3h6.2v0.9h-5.1v2.7h4.8v0.9h-4.8v2.8h5.4v1z"/>
			</g>
		</g>
	</g>
	<g id="Layer">
		<g id="Layer">
			<g id="Layer">
				<path id="Layer" class="s0" d="m136 67h-1.1l-3.4-8.3h1.2l2.3 5.8 0.5 1.5 0.5-1.5 2.2-5.8h1.2z"/>
			</g>
		</g>
	</g>
	<g id="Layer">
		<g id="Layer">
			<g id="Layer">
				<path id="Layer" class="s0" d="m147.4 67v-8.3h6.3v0.9h-5.2v2.7h4.8v0.9h-4.8v2.8h5.4v1z"/>
			</g>
		</g>
	</g>
	<g id="Layer">
		<g id="Layer">
			<g id="Layer">
				<path id="Layer" class="s0" d="m162.4 67v-8.3h1.1v7.3h4.2v1z"/>
			</g>
		</g>
	</g>
	<g id="Layer">
		<g id="Layer">
			<g id="Layer">
				<path id="Layer" fill-rule="evenodd" class="s0" d="m183.8 62.8q0 1.3-0.5 2.3-0.5 0.9-1.4 1.5-1 0.5-2.2 0.5-1.3 0-2.2-0.5-0.9-0.6-1.4-1.5-0.5-1-0.5-2.3 0-2 1.1-3.1 1-1.1 3-1.1 1.3 0 2.2 0.5 0.9 0.5 1.4 1.4 0.5 1 0.5 2.3zm-1.2 0q0-1.6-0.7-2.4-0.8-0.9-2.2-0.9-1.4 0-2.2 0.9-0.8 0.8-0.8 2.4 0 1.5 0.8 2.4 0.8 1 2.2 1 1.4 0 2.2-0.9 0.7-0.9 0.7-2.5z"/>
			</g>
		</g>
	</g>
	<g id="Layer">
		<g id="Layer">
			<g id="Layer">
				<path id="Layer" fill-rule="evenodd" class="s0" d="m198.7 61.2q0 1.2-0.8 1.8-0.7 0.7-2.1 0.7h-2.4v3.3h-1.1v-8.3h3.5q1.4 0 2.1 0.7 0.8 0.6 0.8 1.8zm-1.1 0q0-1.6-2-1.6h-2.2v3.2h2.3q1.9 0 1.9-1.6z"/>
			</g>
		</g>
	</g>
	<g id="Layer">
		<g id="Layer">
			<g id="Layer">
				<path id="Layer" class="s0" d="m207.3 67v-8.3h6.2v0.9h-5.1v2.7h4.8v0.9h-4.8v2.8h5.4v1z"/>
			</g>
		</g>
	</g>
	<g id="Layer">
		<g id="Layer">
			<g id="Layer">
				<path id="Layer" fill-rule="evenodd" class="s0" d="m228.1 67l-2.2-3.5h-2.6v3.5h-1.1v-8.3h3.9q1.4 0 2.2 0.6 0.7 0.6 0.7 1.8 0 0.9-0.5 1.5-0.6 0.6-1.5 0.8l2.3 3.6zm-0.1-5.9q0-0.8-0.5-1.1-0.5-0.4-1.4-0.4h-2.7v3h2.7q0.9 0 1.4-0.4 0.5-0.4 0.5-1.1z"/>
			</g>
		</g>
	</g>
</svg>